<svg xmlns="http://www.w3.org/2000/svg" xmlns:xlink="http://www.w3.org/1999/xlink" width="500" zoomAndPan="magnify" viewBox="0 0 375 374.999991" height="500" preserveAspectRatio="xMidYMid meet" version="1.2"><defs><clipPath id="7b3a0e5bf6"><path d="M 176.660156 126 L 181 126 L 181 256 L 176.660156 256 Z M 176.660156 126 "/></clipPath><clipPath id="46ac0d44b8"><path d="M 30 125.214844 L 180 125.214844 L 180 254.964844 L 30 254.964844 Z M 30 125.214844 "/></clipPath><clipPath id="9880ac7bcd"><path d="M 55 219 L 180.90625 219 L 180.90625 244 L 55 244 Z M 55 219 "/></clipPath><clipPath id="9cd9218d8a"><path d="M 62 138 L 180.90625 138 L 180.90625 156 L 62 156 Z M 62 138 "/></clipPath><clipPath id="af775502b7"><path d="M 54 150 L 180.90625 150 L 180.90625 231 L 54 231 Z M 54 150 "/></clipPath><clipPath id="cbf44cd91d"><path d="M 170 151 L 180.90625 151 L 180.90625 158 L 170 158 Z M 170 151 "/></clipPath><clipPath id="05113a5a73"><path d="M 163 163 L 180.90625 163 L 180.90625 171 L 163 171 Z M 163 163 "/></clipPath><clipPath id="6ec36618a2"><path d="M 161 211 L 180.90625 211 L 180.90625 219 L 161 219 Z M 161 211 "/></clipPath><clipPath id="40cc1f3b6f"><path d="M 179 200 L 180.90625 200 L 180.90625 207 L 179 207 Z M 179 200 "/></clipPath><clipPath id="c9876f88c7"><path d="M 179 175 L 180.90625 175 L 180.90625 183 L 179 183 Z M 179 175 "/></clipPath><clipPath id="99c386e19f"><path d="M 179 187 L 180.90625 187 L 180.90625 195 L 179 195 Z M 179 187 "/></clipPath></defs><g id="851274c171"><g clip-rule="nonzero" clip-path="url(#7b3a0e5bf6)"><path style=" stroke:none;fill-rule:nonzero;fill:#1db954;fill-opacity:1;" d="M 175.921875 255.394531 C 173.394531 255.394531 171.347656 253.347656 171.347656 250.820312 L 171.347656 130.722656 C 171.347656 128.195312 173.394531 126.148438 175.921875 126.148438 C 178.449219 126.148438 180.496094 128.195312 180.496094 130.722656 L 180.496094 250.820312 C 180.496094 253.347656 178.449219 255.394531 175.921875 255.394531 Z M 175.921875 255.394531 "/></g><path style=" stroke:none;fill-rule:nonzero;fill:#1db954;fill-opacity:1;" d="M 198.527344 234.808594 C 196.003906 234.808594 193.953125 232.761719 193.953125 230.234375 L 193.953125 151.3125 C 193.953125 148.785156 196.003906 146.738281 198.527344 146.738281 C 201.054688 146.738281 203.105469 148.785156 203.105469 151.3125 L 203.105469 230.234375 C 203.105469 232.761719 201.054688 234.808594 198.527344 234.808594 Z M 198.527344 234.808594 "/><path style=" stroke:none;fill-rule:nonzero;fill:#1db954;fill-opacity:1;" d="M 221.136719 217.160156 C 218.609375 217.160156 216.558594 215.113281 216.558594 212.585938 L 216.558594 168.957031 C 216.558594 166.429688 218.609375 164.382812 221.136719 164.382812 C 223.664062 164.382812 225.710938 166.429688 225.710938 168.957031 L 225.710938 212.585938 C 225.710938 215.113281 223.664062 217.160156 221.136719 217.160156 Z M 221.136719 217.160156 "/><path style=" stroke:none;fill-rule:nonzero;fill:#1db954;fill-opacity:1;" d="M 243.742188 208.949219 C 241.214844 208.949219 239.167969 206.902344 239.167969 204.375 L 239.167969 177.167969 C 239.167969 174.640625 241.214844 172.59375 243.742188 172.59375 C 246.269531 172.59375 248.316406 174.640625 248.316406 177.167969 L 248.316406 204.375 C 248.316406 206.902344 246.269531 208.949219 243.742188 208.949219 Z M 243.742188 208.949219 "/><path style=" stroke:none;fill-rule:nonzero;fill:#1db954;fill-opacity:1;" d="M 266.347656 208.949219 C 263.820312 208.949219 261.773438 206.902344 261.773438 204.375 L 261.773438 177.167969 C 261.773438 174.640625 263.820312 172.59375 266.347656 172.59375 C 268.875 172.59375 270.925781 174.640625 270.925781 177.167969 L 270.925781 204.375 C 270.925781 206.902344 268.875 208.949219 266.347656 208.949219 Z M 266.347656 208.949219 "/><path style=" stroke:none;fill-rule:nonzero;fill:#1db954;fill-opacity:1;" d="M 288.957031 252.453125 C 286.429688 252.453125 284.378906 250.40625 284.378906 247.878906 L 284.378906 133.664062 C 284.378906 131.136719 286.429688 129.089844 288.957031 129.089844 C 291.480469 129.089844 293.53125 131.136719 293.53125 133.664062 L 293.53125 247.878906 C 293.53125 250.40625 291.480469 252.453125 288.957031 252.453125 Z M 288.957031 252.453125 "/><path style=" stroke:none;fill-rule:nonzero;fill:#1db954;fill-opacity:1;" d="M 311.5625 267.773438 C 309.035156 267.773438 306.984375 265.726562 306.984375 263.199219 L 306.984375 118.347656 C 306.984375 115.820312 309.035156 113.769531 311.5625 113.769531 C 314.089844 113.769531 316.136719 115.820312 316.136719 118.347656 L 316.136719 263.199219 C 316.136719 265.726562 314.089844 267.773438 311.5625 267.773438 Z M 311.5625 267.773438 "/><path style=" stroke:none;fill-rule:nonzero;fill:#1db954;fill-opacity:1;" d="M 334.167969 258.519531 C 331.640625 258.519531 329.59375 256.472656 329.59375 253.945312 L 329.59375 127.597656 C 329.59375 125.070312 331.640625 123.023438 334.167969 123.023438 C 336.695312 123.023438 338.742188 125.070312 338.742188 127.597656 L 338.742188 253.945312 C 338.742188 256.472656 336.695312 258.519531 334.167969 258.519531 Z M 334.167969 258.519531 "/><g clip-rule="nonzero" clip-path="url(#46ac0d44b8)"><path style=" stroke:none;fill-rule:nonzero;fill:#1db954;fill-opacity:1;" d="M 179.554688 129.851562 C 179.554688 129.914062 179.554688 129.960938 179.542969 130.007812 C 179.472656 131.6875 178.039062 132.988281 176.359375 132.90625 C 175.691406 132.882812 175.097656 132.84375 174.585938 132.820312 C 156.65625 131.914062 106.992188 131.988281 100.996094 132 C 100.816406 132.035156 100.640625 132.058594 100.460938 132.058594 C 63.894531 132.703125 36.324219 157.601562 36.324219 189.972656 C 36.324219 222.34375 63.894531 247.242188 100.460938 247.886719 C 100.640625 247.886719 100.832031 247.910156 101.007812 247.945312 L 102.261719 247.945312 C 111.449219 247.851562 152.070312 247.648438 167.671875 248.410156 C 169.171875 248.480469 171.1875 248.625 173.570312 248.792969 L 175.121094 248.898438 C 176.800781 249.019531 178.003906 250.484375 177.957031 252.152344 C 177.839844 253.832031 176.382812 255.097656 174.703125 254.988281 L 173.140625 254.882812 C 170.804688 254.714844 168.839844 254.574219 167.375 254.5 C 151.914062 253.75 111.472656 253.953125 102.296875 254.046875 L 100.402344 254.046875 C 100.175781 254.046875 99.949219 254.023438 99.734375 253.976562 C 60.066406 253 30.222656 225.585938 30.222656 189.972656 C 30.222656 154.359375 60.066406 126.933594 99.746094 125.96875 C 99.960938 125.921875 100.175781 125.894531 100.390625 125.894531 C 100.9375 125.894531 155.742188 125.753906 174.941406 126.71875 C 175.464844 126.753906 176.027344 126.777344 176.644531 126.8125 C 178.277344 126.898438 179.554688 128.246094 179.554688 129.851562 "/></g><path style=" stroke:none;fill-rule:nonzero;fill:#1db954;fill-opacity:1;" d="M 57.554688 162.523438 C 57.554688 163.167969 57.351562 163.796875 56.945312 164.347656 C 51.4375 171.699219 48.53125 180.554688 48.53125 189.972656 C 48.53125 197.171875 50.175781 203.929688 53.429688 210.054688 C 54.214844 211.546875 53.65625 213.394531 52.164062 214.179688 C 50.675781 214.976562 48.828125 214.40625 48.042969 212.914062 C 44.3125 205.894531 42.429688 198.183594 42.429688 189.972656 C 42.429688 179.234375 45.753906 169.101562 52.058594 160.699219 C 53.070312 159.339844 54.976562 159.066406 56.324219 160.078125 C 57.136719 160.6875 57.554688 161.59375 57.554688 162.523438 "/><g clip-rule="nonzero" clip-path="url(#9880ac7bcd)"><path style=" stroke:none;fill-rule:nonzero;fill:#1db954;fill-opacity:1;" d="M 186.71875 240.101562 C 186.71875 240.164062 186.71875 240.222656 186.71875 240.269531 C 186.621094 241.949219 185.179688 243.25 183.5 243.140625 C 176.394531 242.75 170.613281 242.449219 167.992188 242.332031 C 152.890625 241.558594 115.464844 241.746094 103.167969 241.808594 L 102.617188 241.808594 L 100.566406 241.785156 C 83.09375 241.484375 67.554688 235.417969 56.800781 224.691406 C 55.609375 223.5 55.597656 221.570312 56.789062 220.378906 C 57.980469 219.183594 59.914062 219.183594 61.105469 220.367188 C 70.734375 229.972656 84.789062 235.417969 100.664062 235.679688 L 102.640625 235.703125 L 103.140625 235.703125 C 115.476562 235.644531 153.035156 235.453125 168.304688 236.230469 C 170.902344 236.359375 176.71875 236.660156 183.832031 237.050781 C 185.464844 237.148438 186.71875 238.492188 186.71875 240.101562 "/></g><g clip-rule="nonzero" clip-path="url(#9cd9218d8a)"><path style=" stroke:none;fill-rule:nonzero;fill:#1db954;fill-opacity:1;" d="M 188.339844 142.523438 C 188.339844 142.582031 188.339844 142.628906 188.339844 142.691406 C 188.242188 144.371094 186.8125 145.65625 185.132812 145.574219 L 174.011719 144.992188 C 167.636719 144.703125 156.8125 144.488281 144.347656 144.382812 C 128.601562 144.203125 111.746094 144.203125 104.550781 144.203125 L 100.652344 144.261719 C 97.113281 144.324219 93.621094 144.644531 90.304688 145.230469 C 89.460938 145.371094 88.671875 145.515625 87.851562 145.695312 C 87.777344 145.707031 87.707031 145.71875 87.636719 145.730469 C 87.027344 145.847656 86.445312 146.003906 85.859375 146.148438 L 85.347656 146.277344 C 84.464844 146.503906 83.820312 146.671875 83.203125 146.863281 L 81.652344 147.363281 C 80.996094 147.542969 80.449219 147.742188 79.890625 147.96875 C 75.15625 149.640625 70.867188 151.867188 66.980469 154.632812 C 65.597656 155.609375 63.703125 155.300781 62.726562 153.917969 C 61.75 152.546875 62.070312 150.640625 63.441406 149.664062 C 67.777344 146.5625 72.59375 144.085938 77.71875 142.273438 C 78.375 142 79.160156 141.710938 79.949219 141.5 L 80.414062 141.355469 C 80.746094 141.246094 81.082031 141.128906 81.414062 141.035156 C 82.070312 140.820312 82.832031 140.628906 83.582031 140.425781 L 83.964844 140.332031 C 84 140.316406 84.347656 140.234375 84.394531 140.222656 C 85.121094 140.042969 85.835938 139.867188 86.585938 139.722656 C 86.648438 139.710938 86.707031 139.699219 86.753906 139.6875 C 87.589844 139.519531 88.398438 139.363281 89.257812 139.210938 C 92.878906 138.578125 96.683594 138.21875 100.566406 138.160156 L 104.488281 138.101562 C 111.761719 138.101562 128.648438 138.101562 144.40625 138.28125 C 156.945312 138.386719 167.839844 138.601562 174.320312 138.898438 L 185.441406 139.484375 C 187.074219 139.566406 188.339844 140.914062 188.339844 142.523438 "/></g><path style=" stroke:none;fill-rule:nonzero;fill:#1db954;fill-opacity:1;" d="M 173.628906 189.972656 C 173.628906 203.917969 168.980469 217.074219 160.210938 228.042969 C 159.160156 229.351562 157.230469 229.566406 155.917969 228.519531 C 154.609375 227.457031 154.382812 225.539062 155.441406 224.226562 C 163.355469 214.347656 167.527344 202.511719 167.527344 189.972656 C 167.527344 171.367188 158.457031 154.550781 142.640625 143.824219 C 141.246094 142.878906 140.890625 140.972656 141.820312 139.578125 C 142.773438 138.195312 144.667969 137.828125 146.0625 138.769531 C 163.582031 150.652344 173.628906 169.316406 173.628906 189.972656 "/><path style=" stroke:none;fill-rule:nonzero;fill:#1db954;fill-opacity:1;" d="M 161.425781 189.972656 C 161.425781 205.40625 154.5 219.269531 141.914062 229.007812 C 140.589844 230.042969 138.671875 229.792969 137.636719 228.457031 C 136.609375 227.125 136.859375 225.214844 138.183594 224.179688 C 149.234375 215.621094 155.324219 203.476562 155.324219 189.972656 C 155.324219 163.882812 132.367188 144.203125 101.925781 144.203125 C 100.246094 144.203125 98.875 142.832031 98.875 141.152344 C 98.875 139.472656 100.246094 138.101562 101.925781 138.101562 C 135.847656 138.101562 161.425781 160.402344 161.425781 189.972656 "/><g clip-rule="nonzero" clip-path="url(#af775502b7)"><path style=" stroke:none;fill-rule:nonzero;fill:#1db954;fill-opacity:1;" d="M 193.214844 227.800781 C 193.214844 227.839844 193.214844 227.875 193.214844 227.910156 C 193.164062 229.589844 191.746094 230.914062 190.066406 230.855469 L 170.484375 230.222656 L 158.253906 229.636719 C 154.871094 229.554688 151.066406 229.566406 147.109375 229.578125 C 144.8125 229.578125 142.449219 229.589844 140.078125 229.578125 C 128.542969 229.507812 116.539062 229.554688 107.992188 229.589844 L 103.464844 229.601562 C 103.140625 229.636719 102.820312 229.636719 102.488281 229.601562 L 100.84375 229.578125 C 97.113281 229.519531 93.417969 229.125 89.875 228.421875 C 89.804688 228.410156 89.734375 228.398438 89.675781 228.398438 L 89.664062 228.398438 C 88.972656 228.253906 88.339844 228.125 87.671875 227.96875 C 70.257812 223.917969 58.148438 212.378906 55.324219 197.125 C 55.203125 196.621094 55.097656 195.957031 55.015625 195.277344 L 54.847656 194.035156 C 54.765625 193.355469 54.726562 192.726562 54.703125 192.082031 C 54.597656 189.902344 54.632812 187.613281 54.871094 185.730469 C 56.695312 168.46875 70.066406 155.347656 89.746094 151.523438 L 91.296875 151.234375 C 92.058594 151.105469 92.773438 151.007812 93.511719 150.914062 C 95.644531 150.617188 98.015625 150.4375 100.746094 150.367188 L 104.714844 150.304688 C 106.394531 150.28125 107.789062 151.617188 107.816406 153.308594 C 107.816406 153.320312 107.816406 153.34375 107.816406 153.359375 C 107.816406 155.015625 106.480469 156.371094 104.8125 156.410156 L 100.867188 156.46875 C 98.410156 156.527344 96.253906 156.695312 94.324219 156.957031 C 93.632812 157.050781 93.011719 157.136719 92.34375 157.253906 L 90.902344 157.515625 C 73.964844 160.808594 62.476562 171.878906 60.9375 186.421875 C 60.734375 188.03125 60.699219 189.949219 60.792969 191.773438 C 60.820312 192.285156 60.84375 192.808594 60.902344 193.296875 L 61.070312 194.511719 C 61.128906 195.027344 61.199219 195.453125 61.296875 195.859375 C 63.703125 208.816406 74.085938 218.542969 89.101562 222.035156 C 89.636719 222.164062 90.113281 222.261719 90.617188 222.355469 C 90.710938 222.367188 90.804688 222.390625 90.902344 222.402344 C 94.144531 223.058594 97.515625 223.417969 100.9375 223.476562 L 102.738281 223.5 C 102.820312 223.511719 102.902344 223.511719 102.976562 223.523438 C 103.070312 223.511719 103.167969 223.5 103.261719 223.5 L 107.957031 223.488281 C 116.527344 223.453125 128.554688 223.40625 140.054688 223.476562 C 142.460938 223.488281 144.8125 223.476562 147.097656 223.476562 C 151.105469 223.464844 154.964844 223.453125 158.46875 223.535156 L 170.722656 224.121094 L 190.269531 224.761719 C 191.914062 224.8125 193.214844 226.167969 193.214844 227.800781 "/></g><g clip-rule="nonzero" clip-path="url(#cbf44cd91d)"><path style=" stroke:none;fill-rule:nonzero;fill:#1db954;fill-opacity:1;" d="M 194.285156 154.667969 C 194.285156 154.703125 194.285156 154.726562 194.285156 154.765625 C 194.226562 156.445312 192.832031 157.765625 191.140625 157.71875 L 179.613281 157.386719 C 176.40625 157.289062 174.167969 157.230469 173.441406 157.195312 C 171.757812 157.125 170.4375 155.753906 170.519531 154.011719 C 170.601562 152.332031 172.023438 151.019531 173.703125 151.105469 C 174.429688 151.140625 176.621094 151.1875 179.78125 151.285156 L 191.332031 151.617188 C 192.988281 151.664062 194.285156 153.023438 194.285156 154.667969 "/></g><g clip-rule="nonzero" clip-path="url(#05113a5a73)"><path style=" stroke:none;fill-rule:nonzero;fill:#1db954;fill-opacity:1;" d="M 198.277344 166.992188 C 198.277344 167.027344 198.277344 167.050781 198.277344 167.089844 C 198.230469 168.769531 196.824219 170.089844 195.144531 170.042969 C 189.316406 169.863281 184.011719 169.710938 180.246094 169.625 C 178.136719 169.554688 174.585938 169.507812 171.664062 169.472656 C 169.136719 169.4375 167.050781 169.398438 166.644531 169.363281 C 164.964844 169.257812 163.726562 167.777344 163.808594 166.109375 C 163.929688 164.429688 165.382812 163.167969 167.0625 163.285156 C 167.492188 163.308594 169.410156 163.332031 171.746094 163.371094 C 174.714844 163.40625 178.304688 163.453125 180.414062 163.523438 C 184.179688 163.609375 189.496094 163.761719 195.335938 163.941406 C 196.980469 164 198.277344 165.347656 198.277344 166.992188 "/></g><g clip-rule="nonzero" clip-path="url(#6ec36618a2)"><path style=" stroke:none;fill-rule:nonzero;fill:#1db954;fill-opacity:1;" d="M 197.527344 215.730469 C 197.527344 215.765625 197.527344 215.800781 197.515625 215.824219 C 197.46875 217.515625 196.050781 218.839844 194.371094 218.78125 L 164.859375 217.730469 C 163.179688 217.660156 161.84375 216.195312 161.949219 214.550781 C 162.023438 212.867188 163.453125 211.570312 165.132812 211.640625 L 180.710938 212.210938 L 194.570312 212.675781 C 196.230469 212.738281 197.527344 214.085938 197.527344 215.730469 "/></g><g clip-rule="nonzero" clip-path="url(#40cc1f3b6f)"><path style=" stroke:none;fill-rule:nonzero;fill:#1db954;fill-opacity:1;" d="M 200.113281 203.605469 C 200.113281 203.644531 200.113281 203.691406 200.113281 203.726562 C 200.042969 205.40625 198.625 206.71875 196.945312 206.660156 C 193.320312 206.515625 189.648438 206.410156 186.0625 206.277344 L 182.6875 206.171875 C 181.03125 206.109375 179.734375 204.761719 179.734375 203.117188 C 179.734375 203.082031 179.734375 203.046875 179.734375 203.023438 C 179.792969 201.332031 181.199219 200.019531 182.878906 200.066406 L 186.265625 200.1875 C 189.863281 200.304688 193.535156 200.425781 197.183594 200.554688 C 198.828125 200.628906 200.113281 201.972656 200.113281 203.605469 "/></g><g clip-rule="nonzero" clip-path="url(#c9876f88c7)"><path style=" stroke:none;fill-rule:nonzero;fill:#1db954;fill-opacity:1;" d="M 200.484375 179.292969 C 200.484375 179.328125 200.484375 179.363281 200.472656 179.386719 C 200.425781 181.082031 199.003906 182.402344 197.324219 182.34375 C 192.738281 182.1875 188.351562 182.058594 184.691406 181.9375 L 182.6875 181.878906 C 181.03125 181.832031 179.734375 180.484375 179.734375 178.839844 C 179.734375 178.804688 179.734375 178.769531 179.734375 178.746094 C 179.792969 177.050781 181.199219 175.730469 182.878906 175.777344 L 184.871094 175.847656 C 188.542969 175.957031 192.9375 176.085938 197.527344 176.242188 C 199.183594 176.300781 200.484375 177.660156 200.484375 179.292969 "/></g><g clip-rule="nonzero" clip-path="url(#99c386e19f)"><path style=" stroke:none;fill-rule:nonzero;fill:#1db954;fill-opacity:1;" d="M 201.054688 191.523438 C 201.054688 191.558594 201.054688 191.59375 201.054688 191.628906 C 201.007812 193.308594 199.601562 194.632812 197.910156 194.574219 L 182.6875 194.085938 C 181.03125 194.035156 179.734375 192.679688 179.734375 191.042969 C 179.734375 191.007812 179.734375 190.972656 179.734375 190.9375 C 179.792969 189.257812 181.199219 187.933594 182.878906 187.992188 L 198.113281 188.480469 C 199.757812 188.53125 201.054688 189.890625 201.054688 191.523438 "/></g><path style=" stroke:none;fill-rule:nonzero;fill:#1db954;fill-opacity:1;" d="M 149.222656 189.972656 C 149.222656 194.609375 148.363281 199.089844 146.660156 203.320312 C 146.039062 204.894531 144.261719 205.644531 142.699219 205.015625 C 141.128906 204.394531 140.351562 202.617188 140.996094 201.058594 C 142.402344 197.550781 143.117188 193.820312 143.117188 189.972656 C 143.117188 170.832031 125.40625 156.410156 101.925781 156.410156 C 78.445312 156.410156 60.734375 170.832031 60.734375 189.972656 C 60.734375 206.265625 73.546875 219.4375 92.628906 222.75 C 93.34375 222.867188 94.046875 222.988281 94.726562 223.082031 C 96.394531 223.320312 97.578125 224.824219 97.324219 226.527344 C 97.085938 228.195312 95.550781 229.363281 93.882812 229.125 C 93.128906 229.019531 92.367188 228.898438 91.582031 228.769531 C 69.484375 224.929688 54.632812 209.339844 54.632812 189.972656 C 54.632812 167.363281 74.964844 150.304688 101.925781 150.304688 C 128.886719 150.304688 149.222656 167.363281 149.222656 189.972656 "/><path style=" stroke:none;fill-rule:nonzero;fill:#1db954;fill-opacity:1;" d="M 138.492188 214.394531 C 138.492188 215.203125 138.183594 216.003906 137.539062 216.597656 C 128.671875 225.011719 116.027344 229.636719 101.925781 229.636719 L 100.351562 229.625 C 98.660156 229.601562 97.421875 228.21875 97.351562 226.527344 C 97.386719 224.835938 98.769531 223.5 100.449219 223.523438 L 101.925781 223.535156 C 114.453125 223.535156 125.621094 219.496094 133.34375 212.175781 C 134.574219 211.019531 136.503906 211.070312 137.660156 212.296875 C 138.21875 212.878906 138.492188 213.644531 138.492188 214.394531 "/><path style=" stroke:none;fill-rule:nonzero;fill:#1db954;fill-opacity:1;" d="M 137.015625 189.972656 C 137.015625 205.632812 121.925781 217.433594 101.925781 217.433594 C 85.585938 217.433594 72.320312 209.6875 68.136719 197.695312 C 67.589844 196.109375 68.421875 194.359375 70.019531 193.808594 C 71.605469 193.25 73.34375 194.085938 73.90625 195.679688 C 77.171875 205.039062 88.433594 211.332031 101.925781 211.332031 C 118.445312 211.332031 130.914062 202.140625 130.914062 189.972656 C 130.914062 177.804688 118.445312 168.613281 101.925781 168.613281 C 88.101562 168.613281 76.765625 175.109375 73.726562 184.777344 C 73.226562 186.382812 71.511719 187.277344 69.902344 186.777344 C 68.304688 186.277344 67.398438 184.574219 67.910156 182.953125 C 71.75 170.722656 85.417969 162.511719 101.925781 162.511719 C 121.925781 162.511719 137.015625 174.3125 137.015625 189.972656 "/><path style=" stroke:none;fill-rule:nonzero;fill:#1db954;fill-opacity:1;" d="M 85.144531 189.972656 C 85.144531 194.296875 92.035156 199.125 101.925781 199.125 C 111.820312 199.125 118.707031 194.296875 118.707031 189.972656 C 118.707031 185.644531 111.820312 180.820312 101.925781 180.820312 C 92.035156 180.820312 85.144531 185.644531 85.144531 189.972656 Z M 124.8125 189.972656 C 124.8125 198.53125 114.761719 205.226562 101.925781 205.226562 C 89.089844 205.226562 79.042969 198.53125 79.042969 189.972656 C 79.042969 181.414062 89.089844 174.714844 101.925781 174.714844 C 114.761719 174.714844 124.8125 181.414062 124.8125 189.972656 "/><path style=" stroke:none;fill-rule:nonzero;fill:#1db954;fill-opacity:1;" d="M 112.070312 189.972656 C 112.070312 191.652344 110.699219 193.023438 109.019531 193.023438 L 95.441406 193.023438 C 93.761719 193.023438 92.390625 191.652344 92.390625 189.972656 C 92.390625 188.292969 93.761719 186.921875 95.441406 186.921875 L 109.019531 186.921875 C 110.699219 186.921875 112.070312 188.292969 112.070312 189.972656 "/></g></svg>