<svg xmlns="http://www.w3.org/2000/svg" xmlns:xlink="http://www.w3.org/1999/xlink" width="500" zoomAndPan="magnify" viewBox="0 0 375 374.999991" height="500" preserveAspectRatio="xMidYMid meet" version="1.2"><defs><clipPath id="944a63dafc"><path d="M 172.910156 87 L 177 87 L 177 217 L 172.910156 217 Z M 172.910156 87 "/></clipPath><clipPath id="91032d2296"><path d="M 26 86.136719 L 176 86.136719 L 176 215.886719 L 26 215.886719 Z M 26 86.136719 "/></clipPath><clipPath id="a5a1f338da"><path d="M 52 180 L 177.15625 180 L 177.15625 205 L 52 205 Z M 52 180 "/></clipPath><clipPath id="c19425f202"><path d="M 58 99 L 177.15625 99 L 177.15625 117 L 58 117 Z M 58 99 "/></clipPath><clipPath id="b205419bcb"><path d="M 50 111 L 177.15625 111 L 177.15625 192 L 50 192 Z M 50 111 "/></clipPath><clipPath id="178823606a"><path d="M 166 112 L 177.15625 112 L 177.15625 119 L 166 119 Z M 166 112 "/></clipPath><clipPath id="a2bcbc5a4c"><path d="M 160 124 L 177.15625 124 L 177.15625 131 L 160 131 Z M 160 124 "/></clipPath><clipPath id="98861acd83"><path d="M 158 172 L 177.15625 172 L 177.15625 180 L 158 180 Z M 158 172 "/></clipPath><clipPath id="65e721ab2a"><path d="M 175 160 L 177.15625 160 L 177.15625 168 L 175 168 Z M 175 160 "/></clipPath><clipPath id="b1eca3c490"><path d="M 175 136 L 177.15625 136 L 177.15625 144 L 175 144 Z M 175 136 "/></clipPath><clipPath id="cad8f7e65c"><path d="M 175 148 L 177.15625 148 L 177.15625 156 L 175 156 Z M 175 148 "/></clipPath></defs><g id="a235c7e7ef"><g style="fill:#ffffff;fill-opacity:1;"><g transform="translate(27.975067, 285.970757)"><path style="stroke:none" d="M 3.84375 0 L 3.84375 -34.984375 L 25.53125 -34.984375 L 25.53125 -30.4375 L 9.125 -30.4375 L 9.125 -19.78125 L 23.984375 -19.78125 L 23.984375 -15.25 L 9.125 -15.25 L 9.125 0 Z M 3.84375 0 "/></g></g><g style="fill:#ffffff;fill-opacity:1;"><g transform="translate(56.53646, 285.970757)"><path style="stroke:none" d="M 3.4375 0 L 3.4375 -26.234375 L 8.546875 -26.234375 L 8.546875 0 Z M 6.015625 -30.28125 C 5.117188 -30.28125 4.351562 -30.578125 3.71875 -31.171875 C 3.09375 -31.773438 2.78125 -32.492188 2.78125 -33.328125 C 2.78125 -34.160156 3.09375 -34.875 3.71875 -35.46875 C 4.351562 -36.070312 5.117188 -36.375 6.015625 -36.375 C 6.898438 -36.375 7.65625 -36.070312 8.28125 -35.46875 C 8.914062 -34.875 9.234375 -34.160156 9.234375 -33.328125 C 9.234375 -32.492188 8.914062 -31.773438 8.28125 -31.171875 C 7.65625 -30.578125 6.898438 -30.28125 6.015625 -30.28125 Z M 6.015625 -30.28125 "/></g></g><g style="fill:#ffffff;fill-opacity:1;"><g transform="translate(68.892046, 285.970757)"><path style="stroke:none" d="M 8.546875 -15.578125 L 8.546875 0 L 3.4375 0 L 3.4375 -26.234375 L 8.328125 -26.234375 L 8.328125 -21.96875 L 8.65625 -21.96875 C 9.257812 -23.351562 10.207031 -24.46875 11.5 -25.3125 C 12.789062 -26.15625 14.421875 -26.578125 16.390625 -26.578125 C 18.179688 -26.578125 19.75 -26.203125 21.09375 -25.453125 C 22.4375 -24.710938 23.476562 -23.609375 24.21875 -22.140625 C 24.957031 -20.671875 25.328125 -18.851562 25.328125 -16.6875 L 25.328125 0 L 20.21875 0 L 20.21875 -16.078125 C 20.21875 -17.972656 19.722656 -19.457031 18.734375 -20.53125 C 17.742188 -21.613281 16.382812 -22.15625 14.65625 -22.15625 C 13.46875 -22.15625 12.414062 -21.894531 11.5 -21.375 C 10.582031 -20.863281 9.859375 -20.113281 9.328125 -19.125 C 8.804688 -18.144531 8.546875 -16.960938 8.546875 -15.578125 Z M 8.546875 -15.578125 "/></g></g><g style="fill:#ffffff;fill-opacity:1;"><g transform="translate(97.999895, 285.970757)"><path style="stroke:none" d="M 13.25 0.515625 C 11.132812 0.515625 9.25 -0.0234375 7.59375 -1.109375 C 5.9375 -2.203125 4.632812 -3.757812 3.6875 -5.78125 C 2.75 -7.800781 2.28125 -10.226562 2.28125 -13.0625 C 2.28125 -15.894531 2.753906 -18.316406 3.703125 -20.328125 C 4.660156 -22.347656 5.96875 -23.894531 7.625 -24.96875 C 9.289062 -26.039062 11.175781 -26.578125 13.28125 -26.578125 C 14.914062 -26.578125 16.226562 -26.304688 17.21875 -25.765625 C 18.21875 -25.222656 18.992188 -24.59375 19.546875 -23.875 C 20.097656 -23.15625 20.53125 -22.523438 20.84375 -21.984375 L 21.140625 -21.984375 L 21.140625 -34.984375 L 26.25 -34.984375 L 26.25 0 L 21.265625 0 L 21.265625 -4.078125 L 20.84375 -4.078125 C 20.53125 -3.523438 20.085938 -2.890625 19.515625 -2.171875 C 18.941406 -1.453125 18.148438 -0.820312 17.140625 -0.28125 C 16.140625 0.25 14.84375 0.515625 13.25 0.515625 Z M 14.375 -3.84375 C 15.84375 -3.84375 17.085938 -4.234375 18.109375 -5.015625 C 19.128906 -5.796875 19.90625 -6.878906 20.4375 -8.265625 C 20.96875 -9.648438 21.234375 -11.265625 21.234375 -13.109375 C 21.234375 -14.929688 20.96875 -16.523438 20.4375 -17.890625 C 19.914062 -19.265625 19.148438 -20.332031 18.140625 -21.09375 C 17.128906 -21.851562 15.875 -22.234375 14.375 -22.234375 C 12.84375 -22.234375 11.5625 -21.832031 10.53125 -21.03125 C 9.507812 -20.238281 8.738281 -19.15625 8.21875 -17.78125 C 7.707031 -16.40625 7.453125 -14.847656 7.453125 -13.109375 C 7.453125 -11.359375 7.710938 -9.78125 8.234375 -8.375 C 8.753906 -6.976562 9.53125 -5.875 10.5625 -5.0625 C 11.59375 -4.25 12.863281 -3.84375 14.375 -3.84375 Z M 14.375 -3.84375 "/></g></g><g style="fill:#ffffff;fill-opacity:1;"><g transform="translate(128.473887, 285.970757)"><path style="stroke:none" d="M 3.84375 -34.984375 L 10.25 -34.984375 L 21.375 -7.78125 L 21.796875 -7.78125 L 32.921875 -34.984375 L 39.328125 -34.984375 L 39.328125 0 L 34.3125 0 L 34.3125 -25.3125 L 33.984375 -25.3125 L 23.671875 -0.046875 L 19.5 -0.046875 L 9.1875 -25.328125 L 8.859375 -25.328125 L 8.859375 0 L 3.84375 0 Z M 3.84375 -34.984375 "/></g></g><g style="fill:#ffffff;fill-opacity:1;"><g transform="translate(172.028644, 285.970757)"><path style="stroke:none" d="M 6.65625 9.84375 C 5.894531 9.84375 5.203125 9.78125 4.578125 9.65625 C 3.953125 9.539062 3.484375 9.414062 3.171875 9.28125 L 4.40625 5.09375 C 5.34375 5.34375 6.175781 5.445312 6.90625 5.40625 C 7.632812 5.375 8.28125 5.101562 8.84375 4.59375 C 9.40625 4.082031 9.898438 3.242188 10.328125 2.078125 L 10.96875 0.34375 L 1.359375 -26.234375 L 6.828125 -26.234375 L 13.46875 -5.875 L 13.75 -5.875 L 20.390625 -26.234375 L 25.875 -26.234375 L 15.0625 3.5 C 14.5625 4.863281 13.921875 6.019531 13.140625 6.96875 C 12.367188 7.925781 11.445312 8.644531 10.375 9.125 C 9.3125 9.601562 8.070312 9.84375 6.65625 9.84375 Z M 6.65625 9.84375 "/></g></g><g style="fill:#ffffff;fill-opacity:1;"><g transform="translate(199.650816, 285.970757)"><path style="stroke:none" d="M 22.921875 -25.78125 C 22.734375 -27.40625 21.976562 -28.660156 20.65625 -29.546875 C 19.34375 -30.441406 17.679688 -30.890625 15.671875 -30.890625 C 14.242188 -30.890625 13.003906 -30.664062 11.953125 -30.21875 C 10.910156 -29.769531 10.097656 -29.15625 9.515625 -28.375 C 8.941406 -27.59375 8.65625 -26.707031 8.65625 -25.71875 C 8.65625 -24.882812 8.851562 -24.164062 9.25 -23.5625 C 9.644531 -22.957031 10.160156 -22.453125 10.796875 -22.046875 C 11.441406 -21.648438 12.132812 -21.316406 12.875 -21.046875 C 13.613281 -20.773438 14.328125 -20.554688 15.015625 -20.390625 L 18.421875 -19.5 C 19.535156 -19.226562 20.679688 -18.859375 21.859375 -18.390625 C 23.035156 -17.921875 24.125 -17.304688 25.125 -16.546875 C 26.125 -15.785156 26.929688 -14.835938 27.546875 -13.703125 C 28.171875 -12.578125 28.484375 -11.234375 28.484375 -9.671875 C 28.484375 -7.679688 27.972656 -5.914062 26.953125 -4.375 C 25.941406 -2.84375 24.46875 -1.632812 22.53125 -0.75 C 20.601562 0.132812 18.273438 0.578125 15.546875 0.578125 C 12.921875 0.578125 10.648438 0.164062 8.734375 -0.65625 C 6.828125 -1.488281 5.332031 -2.671875 4.25 -4.203125 C 3.164062 -5.734375 2.566406 -7.554688 2.453125 -9.671875 L 7.75 -9.671875 C 7.851562 -8.398438 8.265625 -7.347656 8.984375 -6.515625 C 9.710938 -5.679688 10.640625 -5.0625 11.765625 -4.65625 C 12.898438 -4.25 14.144531 -4.046875 15.5 -4.046875 C 17 -4.046875 18.332031 -4.28125 19.5 -4.75 C 20.664062 -5.226562 21.582031 -5.890625 22.25 -6.734375 C 22.925781 -7.585938 23.265625 -8.582031 23.265625 -9.71875 C 23.265625 -10.75 22.96875 -11.59375 22.375 -12.25 C 21.789062 -12.914062 21 -13.460938 20 -13.890625 C 19.007812 -14.328125 17.890625 -14.710938 16.640625 -15.046875 L 12.5 -16.171875 C 9.695312 -16.929688 7.476562 -18.050781 5.84375 -19.53125 C 4.21875 -21.019531 3.40625 -22.976562 3.40625 -25.40625 C 3.40625 -27.425781 3.945312 -29.1875 5.03125 -30.6875 C 6.125 -32.1875 7.601562 -33.351562 9.46875 -34.1875 C 11.34375 -35.03125 13.453125 -35.453125 15.796875 -35.453125 C 18.160156 -35.453125 20.25 -35.035156 22.0625 -34.203125 C 23.882812 -33.378906 25.316406 -32.238281 26.359375 -30.78125 C 27.410156 -29.332031 27.960938 -27.664062 28.015625 -25.78125 Z M 22.921875 -25.78125 "/></g></g><g style="fill:#ffffff;fill-opacity:1;"><g transform="translate(230.97864, 285.970757)"><path style="stroke:none" d="M 14.484375 0.53125 C 12.023438 0.53125 9.878906 -0.03125 8.046875 -1.15625 C 6.210938 -2.289062 4.785156 -3.867188 3.765625 -5.890625 C 2.753906 -7.921875 2.25 -10.289062 2.25 -13 C 2.25 -15.71875 2.753906 -18.09375 3.765625 -20.125 C 4.785156 -22.164062 6.210938 -23.75 8.046875 -24.875 C 9.878906 -26.007812 12.023438 -26.578125 14.484375 -26.578125 C 16.941406 -26.578125 19.085938 -26.007812 20.921875 -24.875 C 22.753906 -23.75 24.175781 -22.164062 25.1875 -20.125 C 26.207031 -18.09375 26.71875 -15.71875 26.71875 -13 C 26.71875 -10.289062 26.207031 -7.921875 25.1875 -5.890625 C 24.175781 -3.867188 22.753906 -2.289062 20.921875 -1.15625 C 19.085938 -0.03125 16.941406 0.53125 14.484375 0.53125 Z M 14.5 -3.75 C 16.09375 -3.75 17.410156 -4.171875 18.453125 -5.015625 C 19.503906 -5.859375 20.28125 -6.976562 20.78125 -8.375 C 21.289062 -9.78125 21.546875 -11.328125 21.546875 -13.015625 C 21.546875 -14.691406 21.289062 -16.234375 20.78125 -17.640625 C 20.28125 -19.046875 19.503906 -20.175781 18.453125 -21.03125 C 17.410156 -21.882812 16.09375 -22.3125 14.5 -22.3125 C 12.894531 -22.3125 11.566406 -21.882812 10.515625 -21.03125 C 9.460938 -20.175781 8.679688 -19.046875 8.171875 -17.640625 C 7.660156 -16.234375 7.40625 -14.691406 7.40625 -13.015625 C 7.40625 -11.328125 7.660156 -9.78125 8.171875 -8.375 C 8.679688 -6.976562 9.460938 -5.859375 10.515625 -5.015625 C 11.566406 -4.171875 12.894531 -3.75 14.5 -3.75 Z M 14.5 -3.75 "/></g></g><g style="fill:#ffffff;fill-opacity:1;"><g transform="translate(260.325566, 285.970757)"><path style="stroke:none" d="M 20.046875 -10.875 L 20.046875 -26.234375 L 25.171875 -26.234375 L 25.171875 0 L 20.15625 0 L 20.15625 -4.546875 L 19.875 -4.546875 C 19.269531 -3.140625 18.304688 -1.972656 16.984375 -1.046875 C 15.660156 -0.117188 14.015625 0.34375 12.046875 0.34375 C 10.359375 0.34375 8.867188 -0.0234375 7.578125 -0.765625 C 6.285156 -1.515625 5.269531 -2.625 4.53125 -4.09375 C 3.800781 -5.5625 3.4375 -7.378906 3.4375 -9.546875 L 3.4375 -26.234375 L 8.546875 -26.234375 L 8.546875 -10.15625 C 8.546875 -8.375 9.039062 -6.953125 10.03125 -5.890625 C 11.019531 -4.828125 12.304688 -4.296875 13.890625 -4.296875 C 14.835938 -4.296875 15.785156 -4.535156 16.734375 -5.015625 C 17.691406 -5.492188 18.484375 -6.21875 19.109375 -7.1875 C 19.742188 -8.15625 20.054688 -9.382812 20.046875 -10.875 Z M 20.046875 -10.875 "/></g></g><g style="fill:#ffffff;fill-opacity:1;"><g transform="translate(289.296791, 285.970757)"><path style="stroke:none" d="M 8.546875 -15.578125 L 8.546875 0 L 3.4375 0 L 3.4375 -26.234375 L 8.328125 -26.234375 L 8.328125 -21.96875 L 8.65625 -21.96875 C 9.257812 -23.351562 10.207031 -24.46875 11.5 -25.3125 C 12.789062 -26.15625 14.421875 -26.578125 16.390625 -26.578125 C 18.179688 -26.578125 19.75 -26.203125 21.09375 -25.453125 C 22.4375 -24.710938 23.476562 -23.609375 24.21875 -22.140625 C 24.957031 -20.671875 25.328125 -18.851562 25.328125 -16.6875 L 25.328125 0 L 20.21875 0 L 20.21875 -16.078125 C 20.21875 -17.972656 19.722656 -19.457031 18.734375 -20.53125 C 17.742188 -21.613281 16.382812 -22.15625 14.65625 -22.15625 C 13.46875 -22.15625 12.414062 -21.894531 11.5 -21.375 C 10.582031 -20.863281 9.859375 -20.113281 9.328125 -19.125 C 8.804688 -18.144531 8.546875 -16.960938 8.546875 -15.578125 Z M 8.546875 -15.578125 "/></g></g><g style="fill:#ffffff;fill-opacity:1;"><g transform="translate(318.404665, 285.970757)"><path style="stroke:none" d="M 13.25 0.515625 C 11.132812 0.515625 9.25 -0.0234375 7.59375 -1.109375 C 5.9375 -2.203125 4.632812 -3.757812 3.6875 -5.78125 C 2.75 -7.800781 2.28125 -10.226562 2.28125 -13.0625 C 2.28125 -15.894531 2.753906 -18.316406 3.703125 -20.328125 C 4.660156 -22.347656 5.96875 -23.894531 7.625 -24.96875 C 9.289062 -26.039062 11.175781 -26.578125 13.28125 -26.578125 C 14.914062 -26.578125 16.226562 -26.304688 17.21875 -25.765625 C 18.21875 -25.222656 18.992188 -24.59375 19.546875 -23.875 C 20.097656 -23.15625 20.53125 -22.523438 20.84375 -21.984375 L 21.140625 -21.984375 L 21.140625 -34.984375 L 26.25 -34.984375 L 26.25 0 L 21.265625 0 L 21.265625 -4.078125 L 20.84375 -4.078125 C 20.53125 -3.523438 20.085938 -2.890625 19.515625 -2.171875 C 18.941406 -1.453125 18.148438 -0.820312 17.140625 -0.28125 C 16.140625 0.25 14.84375 0.515625 13.25 0.515625 Z M 14.375 -3.84375 C 15.84375 -3.84375 17.085938 -4.234375 18.109375 -5.015625 C 19.128906 -5.796875 19.90625 -6.878906 20.4375 -8.265625 C 20.96875 -9.648438 21.234375 -11.265625 21.234375 -13.109375 C 21.234375 -14.929688 20.96875 -16.523438 20.4375 -17.890625 C 19.914062 -19.265625 19.148438 -20.332031 18.140625 -21.09375 C 17.128906 -21.851562 15.875 -22.234375 14.375 -22.234375 C 12.84375 -22.234375 11.5625 -21.832031 10.53125 -21.03125 C 9.507812 -20.238281 8.738281 -19.15625 8.21875 -17.78125 C 7.707031 -16.40625 7.453125 -14.847656 7.453125 -13.109375 C 7.453125 -11.359375 7.710938 -9.78125 8.234375 -8.375 C 8.753906 -6.976562 9.53125 -5.875 10.5625 -5.0625 C 11.59375 -4.25 12.863281 -3.84375 14.375 -3.84375 Z M 14.375 -3.84375 "/></g></g><g clip-rule="nonzero" clip-path="url(#944a63dafc)"><path style=" stroke:none;fill-rule:nonzero;fill:#1db954;fill-opacity:1;" d="M 172.171875 216.316406 C 169.644531 216.316406 167.597656 214.269531 167.597656 211.742188 L 167.597656 91.644531 C 167.597656 89.117188 169.644531 87.070312 172.171875 87.070312 C 174.699219 87.070312 176.746094 89.117188 176.746094 91.644531 L 176.746094 211.742188 C 176.746094 214.269531 174.699219 216.316406 172.171875 216.316406 Z M 172.171875 216.316406 "/></g><path style=" stroke:none;fill-rule:nonzero;fill:#1db954;fill-opacity:1;" d="M 194.777344 195.730469 C 192.253906 195.730469 190.203125 193.683594 190.203125 191.15625 L 190.203125 112.234375 C 190.203125 109.707031 192.253906 107.660156 194.777344 107.660156 C 197.304688 107.660156 199.355469 109.707031 199.355469 112.234375 L 199.355469 191.15625 C 199.355469 193.683594 197.304688 195.730469 194.777344 195.730469 Z M 194.777344 195.730469 "/><path style=" stroke:none;fill-rule:nonzero;fill:#1db954;fill-opacity:1;" d="M 217.386719 178.082031 C 214.859375 178.082031 212.808594 176.035156 212.808594 173.507812 L 212.808594 129.878906 C 212.808594 127.355469 214.859375 125.304688 217.386719 125.304688 C 219.914062 125.304688 221.960938 127.355469 221.960938 129.878906 L 221.960938 173.507812 C 221.960938 176.035156 219.914062 178.082031 217.386719 178.082031 Z M 217.386719 178.082031 "/><path style=" stroke:none;fill-rule:nonzero;fill:#1db954;fill-opacity:1;" d="M 239.992188 169.871094 C 237.464844 169.871094 235.417969 167.824219 235.417969 165.296875 L 235.417969 138.089844 C 235.417969 135.566406 237.464844 133.515625 239.992188 133.515625 C 242.519531 133.515625 244.566406 135.566406 244.566406 138.089844 L 244.566406 165.296875 C 244.566406 167.824219 242.519531 169.871094 239.992188 169.871094 Z M 239.992188 169.871094 "/><path style=" stroke:none;fill-rule:nonzero;fill:#1db954;fill-opacity:1;" d="M 262.597656 169.871094 C 260.070312 169.871094 258.023438 167.824219 258.023438 165.296875 L 258.023438 138.089844 C 258.023438 135.566406 260.070312 133.515625 262.597656 133.515625 C 265.125 133.515625 267.175781 135.566406 267.175781 138.089844 L 267.175781 165.296875 C 267.175781 167.824219 265.125 169.871094 262.597656 169.871094 Z M 262.597656 169.871094 "/><path style=" stroke:none;fill-rule:nonzero;fill:#1db954;fill-opacity:1;" d="M 285.207031 213.378906 C 282.679688 213.378906 280.628906 211.328125 280.628906 208.800781 L 280.628906 94.585938 C 280.628906 92.058594 282.679688 90.011719 285.207031 90.011719 C 287.730469 90.011719 289.78125 92.058594 289.78125 94.585938 L 289.78125 208.800781 C 289.78125 211.328125 287.730469 213.378906 285.207031 213.378906 Z M 285.207031 213.378906 "/><path style=" stroke:none;fill-rule:nonzero;fill:#1db954;fill-opacity:1;" d="M 307.8125 228.695312 C 305.285156 228.695312 303.234375 226.648438 303.234375 224.121094 L 303.234375 79.269531 C 303.234375 76.742188 305.285156 74.691406 307.8125 74.691406 C 310.339844 74.691406 312.386719 76.742188 312.386719 79.269531 L 312.386719 224.121094 C 312.386719 226.648438 310.339844 228.695312 307.8125 228.695312 Z M 307.8125 228.695312 "/><path style=" stroke:none;fill-rule:nonzero;fill:#1db954;fill-opacity:1;" d="M 330.417969 219.441406 C 327.890625 219.441406 325.84375 217.394531 325.84375 214.867188 L 325.84375 88.519531 C 325.84375 85.992188 327.890625 83.945312 330.417969 83.945312 C 332.945312 83.945312 334.992188 85.992188 334.992188 88.519531 L 334.992188 214.867188 C 334.992188 217.394531 332.945312 219.441406 330.417969 219.441406 Z M 330.417969 219.441406 "/><g clip-rule="nonzero" clip-path="url(#91032d2296)"><path style=" stroke:none;fill-rule:nonzero;fill:#1db954;fill-opacity:1;" d="M 175.804688 90.777344 C 175.804688 90.835938 175.804688 90.882812 175.792969 90.929688 C 175.722656 92.609375 174.289062 93.910156 172.609375 93.828125 C 171.941406 93.804688 171.347656 93.765625 170.835938 93.742188 C 152.90625 92.835938 103.242188 92.910156 97.246094 92.921875 C 97.066406 92.957031 96.890625 92.980469 96.710938 92.980469 C 60.144531 93.625 32.574219 118.523438 32.574219 150.894531 C 32.574219 183.265625 60.144531 208.164062 96.710938 208.808594 C 96.890625 208.808594 97.082031 208.832031 97.257812 208.867188 L 98.511719 208.867188 C 107.699219 208.773438 148.320312 208.570312 163.921875 209.332031 C 165.421875 209.402344 167.4375 209.546875 169.820312 209.714844 L 171.371094 209.820312 C 173.050781 209.941406 174.253906 211.40625 174.207031 213.074219 C 174.089844 214.753906 172.632812 216.019531 170.953125 215.910156 L 169.390625 215.804688 C 167.054688 215.636719 165.089844 215.496094 163.625 215.421875 C 148.164062 214.671875 107.722656 214.875 98.546875 214.96875 L 96.652344 214.96875 C 96.425781 214.96875 96.199219 214.945312 95.984375 214.898438 C 56.316406 213.921875 26.472656 186.507812 26.472656 150.894531 C 26.472656 115.28125 56.316406 87.855469 95.996094 86.890625 C 96.210938 86.84375 96.425781 86.820312 96.640625 86.820312 C 97.1875 86.820312 151.992188 86.675781 171.191406 87.640625 C 171.714844 87.675781 172.277344 87.699219 172.894531 87.738281 C 174.527344 87.820312 175.804688 89.167969 175.804688 90.777344 "/></g><path style=" stroke:none;fill-rule:nonzero;fill:#1db954;fill-opacity:1;" d="M 53.804688 123.445312 C 53.804688 124.089844 53.601562 124.71875 53.195312 125.269531 C 47.6875 132.621094 44.78125 141.480469 44.78125 150.894531 C 44.78125 158.09375 46.425781 164.851562 49.679688 170.976562 C 50.464844 172.46875 49.90625 174.316406 48.414062 175.101562 C 46.925781 175.898438 45.078125 175.328125 44.292969 173.839844 C 40.5625 166.816406 38.679688 159.105469 38.679688 150.894531 C 38.679688 140.15625 42.003906 130.023438 48.308594 121.621094 C 49.320312 120.261719 51.226562 119.988281 52.574219 121 C 53.386719 121.609375 53.804688 122.515625 53.804688 123.445312 "/><g clip-rule="nonzero" clip-path="url(#a5a1f338da)"><path style=" stroke:none;fill-rule:nonzero;fill:#1db954;fill-opacity:1;" d="M 182.96875 201.023438 C 182.96875 201.085938 182.96875 201.144531 182.96875 201.191406 C 182.871094 202.871094 181.429688 204.171875 179.75 204.066406 C 172.644531 203.671875 166.863281 203.375 164.242188 203.253906 C 149.140625 202.480469 111.714844 202.671875 99.417969 202.730469 L 98.867188 202.730469 L 96.816406 202.707031 C 79.34375 202.40625 63.804688 196.339844 53.050781 185.613281 C 51.859375 184.421875 51.847656 182.492188 53.039062 181.300781 C 54.230469 180.109375 56.164062 180.109375 57.355469 181.289062 C 66.984375 190.894531 81.039062 196.339844 96.914062 196.601562 L 98.890625 196.628906 L 99.390625 196.628906 C 111.726562 196.566406 149.285156 196.375 164.554688 197.152344 C 167.152344 197.28125 172.96875 197.582031 180.082031 197.972656 C 181.714844 198.070312 182.96875 199.417969 182.96875 201.023438 "/></g><g clip-rule="nonzero" clip-path="url(#c19425f202)"><path style=" stroke:none;fill-rule:nonzero;fill:#1db954;fill-opacity:1;" d="M 184.589844 103.445312 C 184.589844 103.503906 184.589844 103.550781 184.589844 103.613281 C 184.492188 105.292969 183.0625 106.582031 181.382812 106.496094 L 170.261719 105.914062 C 163.886719 105.625 153.0625 105.410156 140.597656 105.304688 C 124.851562 105.125 107.996094 105.125 100.800781 105.125 L 96.902344 105.1875 C 93.363281 105.246094 89.871094 105.566406 86.554688 106.152344 C 85.710938 106.292969 84.921875 106.4375 84.101562 106.617188 C 84.027344 106.628906 83.957031 106.640625 83.886719 106.652344 C 83.277344 106.769531 82.695312 106.925781 82.109375 107.070312 L 81.597656 107.199219 C 80.714844 107.425781 80.070312 107.59375 79.453125 107.785156 L 77.902344 108.285156 C 77.246094 108.464844 76.699219 108.664062 76.140625 108.890625 C 71.40625 110.5625 67.117188 112.789062 63.230469 115.554688 C 61.847656 116.53125 59.953125 116.222656 58.976562 114.839844 C 58 113.46875 58.320312 111.5625 59.691406 110.585938 C 64.027344 107.484375 68.84375 105.007812 73.96875 103.195312 C 74.625 102.921875 75.410156 102.636719 76.199219 102.421875 L 76.664062 102.277344 C 76.996094 102.171875 77.332031 102.050781 77.664062 101.957031 C 78.320312 101.742188 79.082031 101.550781 79.832031 101.347656 L 80.214844 101.253906 C 80.25 101.242188 80.597656 101.15625 80.644531 101.144531 C 81.371094 100.964844 82.085938 100.789062 82.835938 100.644531 C 82.898438 100.632812 82.957031 100.621094 83.003906 100.609375 C 83.839844 100.441406 84.648438 100.285156 85.507812 100.132812 C 89.128906 99.5 92.933594 99.144531 96.816406 99.082031 L 100.738281 99.023438 C 108.011719 99.023438 124.898438 99.023438 140.65625 99.203125 C 153.195312 99.308594 164.089844 99.523438 170.570312 99.820312 L 181.691406 100.40625 C 183.324219 100.488281 184.589844 101.835938 184.589844 103.445312 "/></g><path style=" stroke:none;fill-rule:nonzero;fill:#1db954;fill-opacity:1;" d="M 169.878906 150.894531 C 169.878906 164.839844 165.230469 177.996094 156.460938 188.964844 C 155.410156 190.273438 153.480469 190.488281 152.167969 189.441406 C 150.859375 188.378906 150.632812 186.460938 151.691406 185.148438 C 159.605469 175.269531 163.777344 163.433594 163.777344 150.894531 C 163.777344 132.289062 154.707031 115.472656 138.890625 104.746094 C 137.496094 103.804688 137.140625 101.894531 138.070312 100.5 C 139.023438 99.117188 140.917969 98.75 142.3125 99.691406 C 159.832031 111.574219 169.878906 130.238281 169.878906 150.894531 "/><path style=" stroke:none;fill-rule:nonzero;fill:#1db954;fill-opacity:1;" d="M 157.675781 150.894531 C 157.675781 166.328125 150.75 180.191406 138.164062 189.929688 C 136.839844 190.964844 134.921875 190.714844 133.886719 189.378906 C 132.859375 188.046875 133.109375 186.136719 134.433594 185.101562 C 145.484375 176.542969 151.574219 164.398438 151.574219 150.894531 C 151.574219 124.804688 128.617188 105.125 98.175781 105.125 C 96.496094 105.125 95.125 103.753906 95.125 102.074219 C 95.125 100.394531 96.496094 99.023438 98.175781 99.023438 C 132.097656 99.023438 157.675781 121.324219 157.675781 150.894531 "/><g clip-rule="nonzero" clip-path="url(#b205419bcb)"><path style=" stroke:none;fill-rule:nonzero;fill:#1db954;fill-opacity:1;" d="M 189.464844 188.726562 C 189.464844 188.761719 189.464844 188.796875 189.464844 188.832031 C 189.414062 190.511719 187.996094 191.835938 186.316406 191.777344 L 166.734375 191.144531 L 154.503906 190.558594 C 151.121094 190.476562 147.316406 190.488281 143.359375 190.5 C 141.0625 190.5 138.699219 190.511719 136.328125 190.5 C 124.792969 190.429688 112.789062 190.476562 104.242188 190.511719 L 99.714844 190.523438 C 99.390625 190.558594 99.070312 190.558594 98.738281 190.523438 L 97.09375 190.5 C 93.363281 190.441406 89.667969 190.046875 86.125 189.34375 C 86.054688 189.332031 85.984375 189.320312 85.925781 189.320312 L 85.914062 189.320312 C 85.222656 189.179688 84.589844 189.046875 83.921875 188.890625 C 66.507812 184.839844 54.398438 173.300781 51.574219 158.046875 C 51.453125 157.546875 51.347656 156.878906 51.265625 156.199219 L 51.097656 154.957031 C 51.015625 154.28125 50.976562 153.648438 50.953125 153.003906 C 50.847656 150.824219 50.882812 148.535156 51.121094 146.652344 C 52.945312 129.394531 66.316406 116.269531 85.996094 112.445312 L 87.546875 112.15625 C 88.308594 112.027344 89.023438 111.933594 89.761719 111.835938 C 91.894531 111.539062 94.265625 111.359375 96.996094 111.289062 L 100.964844 111.226562 C 102.644531 111.203125 104.039062 112.539062 104.066406 114.230469 C 104.066406 114.242188 104.066406 114.269531 104.066406 114.28125 C 104.066406 115.9375 102.730469 117.296875 101.0625 117.332031 L 97.117188 117.390625 C 94.660156 117.449219 92.503906 117.617188 90.574219 117.878906 C 89.882812 117.972656 89.261719 118.058594 88.59375 118.175781 L 87.152344 118.4375 C 70.214844 121.730469 58.726562 132.800781 57.1875 147.34375 C 56.984375 148.953125 56.949219 150.871094 57.042969 152.695312 C 57.070312 153.207031 57.09375 153.730469 57.152344 154.21875 L 57.320312 155.433594 C 57.378906 155.949219 57.449219 156.378906 57.546875 156.78125 C 59.953125 169.738281 70.335938 179.464844 85.351562 182.957031 C 85.886719 183.085938 86.363281 183.183594 86.867188 183.277344 C 86.960938 183.289062 87.054688 183.3125 87.152344 183.324219 C 90.394531 183.980469 93.765625 184.339844 97.1875 184.398438 L 98.988281 184.421875 C 99.070312 184.433594 99.152344 184.433594 99.226562 184.445312 C 99.320312 184.433594 99.417969 184.421875 99.511719 184.421875 L 104.207031 184.410156 C 112.777344 184.375 124.804688 184.328125 136.304688 184.398438 C 138.710938 184.410156 141.0625 184.398438 143.347656 184.398438 C 147.355469 184.386719 151.214844 184.375 154.71875 184.457031 L 166.972656 185.042969 L 186.519531 185.6875 C 188.164062 185.734375 189.464844 187.09375 189.464844 188.726562 "/></g><g clip-rule="nonzero" clip-path="url(#178823606a)"><path style=" stroke:none;fill-rule:nonzero;fill:#1db954;fill-opacity:1;" d="M 190.535156 115.589844 C 190.535156 115.625 190.535156 115.648438 190.535156 115.6875 C 190.476562 117.367188 189.082031 118.691406 187.390625 118.640625 L 175.863281 118.308594 C 172.65625 118.214844 170.417969 118.152344 169.691406 118.117188 C 168.007812 118.046875 166.6875 116.675781 166.769531 114.933594 C 166.851562 113.253906 168.273438 111.945312 169.953125 112.027344 C 170.679688 112.0625 172.871094 112.109375 176.03125 112.207031 L 187.582031 112.539062 C 189.238281 112.585938 190.535156 113.945312 190.535156 115.589844 "/></g><g clip-rule="nonzero" clip-path="url(#a2bcbc5a4c)"><path style=" stroke:none;fill-rule:nonzero;fill:#1db954;fill-opacity:1;" d="M 194.527344 127.914062 C 194.527344 127.949219 194.527344 127.972656 194.527344 128.011719 C 194.480469 129.691406 193.074219 131.015625 191.394531 130.964844 C 185.566406 130.789062 180.261719 130.632812 176.496094 130.550781 C 174.386719 130.476562 170.835938 130.429688 167.914062 130.394531 C 165.386719 130.359375 163.300781 130.324219 162.894531 130.285156 C 161.214844 130.179688 159.976562 128.703125 160.058594 127.03125 C 160.179688 125.351562 161.632812 124.089844 163.3125 124.207031 C 163.742188 124.230469 165.660156 124.253906 167.996094 124.292969 C 170.964844 124.328125 174.554688 124.375 176.664062 124.445312 C 180.429688 124.53125 185.746094 124.683594 191.585938 124.863281 C 193.230469 124.921875 194.527344 126.269531 194.527344 127.914062 "/></g><g clip-rule="nonzero" clip-path="url(#98861acd83)"><path style=" stroke:none;fill-rule:nonzero;fill:#1db954;fill-opacity:1;" d="M 193.777344 176.652344 C 193.777344 176.6875 193.777344 176.722656 193.765625 176.746094 C 193.71875 178.4375 192.300781 179.761719 190.621094 179.703125 L 161.109375 178.652344 C 159.429688 178.582031 158.09375 177.117188 158.199219 175.472656 C 158.273438 173.789062 159.703125 172.492188 161.382812 172.5625 L 176.960938 173.136719 L 190.820312 173.601562 C 192.480469 173.660156 193.777344 175.007812 193.777344 176.652344 "/></g><g clip-rule="nonzero" clip-path="url(#65e721ab2a)"><path style=" stroke:none;fill-rule:nonzero;fill:#1db954;fill-opacity:1;" d="M 196.363281 164.53125 C 196.363281 164.566406 196.363281 164.613281 196.363281 164.648438 C 196.292969 166.328125 194.875 167.640625 193.195312 167.582031 C 189.570312 167.4375 185.898438 167.332031 182.3125 167.199219 L 178.9375 167.09375 C 177.28125 167.03125 175.984375 165.6875 175.984375 164.039062 C 175.984375 164.003906 175.984375 163.96875 175.984375 163.945312 C 176.042969 162.253906 177.449219 160.941406 179.128906 160.988281 L 182.515625 161.109375 C 186.113281 161.226562 189.785156 161.347656 193.433594 161.476562 C 195.078125 161.550781 196.363281 162.898438 196.363281 164.53125 "/></g><g clip-rule="nonzero" clip-path="url(#b1eca3c490)"><path style=" stroke:none;fill-rule:nonzero;fill:#1db954;fill-opacity:1;" d="M 196.734375 140.214844 C 196.734375 140.25 196.734375 140.285156 196.722656 140.308594 C 196.675781 142.003906 195.253906 143.324219 193.574219 143.265625 C 188.988281 143.113281 184.601562 142.980469 180.941406 142.859375 L 178.9375 142.800781 C 177.28125 142.753906 175.984375 141.40625 175.984375 139.761719 C 175.984375 139.726562 175.984375 139.691406 175.984375 139.667969 C 176.042969 137.972656 177.449219 136.652344 179.128906 136.699219 L 181.121094 136.769531 C 184.792969 136.878906 189.1875 137.007812 193.777344 137.164062 C 195.433594 137.222656 196.734375 138.582031 196.734375 140.214844 "/></g><g clip-rule="nonzero" clip-path="url(#cad8f7e65c)"><path style=" stroke:none;fill-rule:nonzero;fill:#1db954;fill-opacity:1;" d="M 197.304688 152.445312 C 197.304688 152.480469 197.304688 152.515625 197.304688 152.550781 C 197.257812 154.230469 195.851562 155.554688 194.160156 155.496094 L 178.9375 155.007812 C 177.28125 154.957031 175.984375 153.601562 175.984375 151.96875 C 175.984375 151.929688 175.984375 151.894531 175.984375 151.859375 C 176.042969 150.179688 177.449219 148.855469 179.128906 148.914062 L 194.363281 149.40625 C 196.007812 149.453125 197.304688 150.8125 197.304688 152.445312 "/></g><path style=" stroke:none;fill-rule:nonzero;fill:#1db954;fill-opacity:1;" d="M 145.472656 150.894531 C 145.472656 155.53125 144.613281 160.011719 142.910156 164.242188 C 142.289062 165.816406 140.511719 166.566406 138.949219 165.9375 C 137.378906 165.316406 136.601562 163.539062 137.246094 161.980469 C 138.652344 158.476562 139.367188 154.746094 139.367188 150.894531 C 139.367188 131.753906 121.65625 117.332031 98.175781 117.332031 C 74.695312 117.332031 56.984375 131.753906 56.984375 150.894531 C 56.984375 167.1875 69.796875 180.359375 88.878906 183.671875 C 89.59375 183.789062 90.296875 183.910156 90.976562 184.003906 C 92.644531 184.242188 93.828125 185.746094 93.574219 187.449219 C 93.335938 189.117188 91.800781 190.285156 90.132812 190.046875 C 89.378906 189.941406 88.617188 189.820312 87.832031 189.691406 C 65.734375 185.851562 50.882812 170.261719 50.882812 150.894531 C 50.882812 128.285156 71.214844 111.226562 98.175781 111.226562 C 125.136719 111.226562 145.472656 128.285156 145.472656 150.894531 "/><path style=" stroke:none;fill-rule:nonzero;fill:#1db954;fill-opacity:1;" d="M 134.742188 175.316406 C 134.742188 176.125 134.433594 176.925781 133.789062 177.519531 C 124.921875 185.9375 112.277344 190.558594 98.175781 190.558594 L 96.601562 190.546875 C 94.910156 190.523438 93.671875 189.140625 93.601562 187.449219 C 93.636719 185.757812 95.019531 184.421875 96.699219 184.445312 L 98.175781 184.457031 C 110.703125 184.457031 121.871094 180.417969 129.59375 173.097656 C 130.824219 171.941406 132.753906 171.992188 133.910156 173.21875 C 134.46875 173.800781 134.742188 174.566406 134.742188 175.316406 "/><path style=" stroke:none;fill-rule:nonzero;fill:#1db954;fill-opacity:1;" d="M 133.265625 150.894531 C 133.265625 166.554688 118.175781 178.355469 98.175781 178.355469 C 81.835938 178.355469 68.570312 170.609375 64.386719 158.617188 C 63.839844 157.03125 64.671875 155.28125 66.269531 154.730469 C 67.855469 154.171875 69.59375 155.007812 70.15625 156.605469 C 73.421875 165.960938 84.683594 172.253906 98.175781 172.253906 C 114.695312 172.253906 127.164062 163.0625 127.164062 150.894531 C 127.164062 138.726562 114.695312 129.535156 98.175781 129.535156 C 84.351562 129.535156 73.015625 136.03125 69.976562 145.699219 C 69.476562 147.308594 67.761719 148.199219 66.152344 147.699219 C 64.554688 147.199219 63.648438 145.496094 64.160156 143.875 C 68 131.644531 81.667969 123.433594 98.175781 123.433594 C 118.175781 123.433594 133.265625 135.234375 133.265625 150.894531 "/><path style=" stroke:none;fill-rule:nonzero;fill:#1db954;fill-opacity:1;" d="M 81.394531 150.894531 C 81.394531 155.222656 88.285156 160.046875 98.175781 160.046875 C 108.070312 160.046875 114.957031 155.222656 114.957031 150.894531 C 114.957031 146.566406 108.070312 141.742188 98.175781 141.742188 C 88.285156 141.742188 81.394531 146.566406 81.394531 150.894531 Z M 121.0625 150.894531 C 121.0625 159.453125 111.011719 166.152344 98.175781 166.152344 C 85.339844 166.152344 75.292969 159.453125 75.292969 150.894531 C 75.292969 142.335938 85.339844 135.636719 98.175781 135.636719 C 111.011719 135.636719 121.0625 142.335938 121.0625 150.894531 "/><path style=" stroke:none;fill-rule:nonzero;fill:#1db954;fill-opacity:1;" d="M 108.320312 150.894531 C 108.320312 152.574219 106.949219 153.945312 105.269531 153.945312 L 91.691406 153.945312 C 90.011719 153.945312 88.640625 152.574219 88.640625 150.894531 C 88.640625 149.214844 90.011719 147.84375 91.691406 147.84375 L 105.269531 147.84375 C 106.949219 147.84375 108.320312 149.214844 108.320312 150.894531 "/></g></svg>